<svg xmlns="http://www.w3.org/2000/svg" version="1.1" width="600px" height="600px" viewBox="0 0 200 200" style="overflow:hidden!important;"><g id="svga-group-wrapper"><g id="svga-group-backs-single"><path id="SvgjsPath12067" d="M0 0h200v200H0V0z" fill="#ecf0f1" stroke-width="none" opacity="1"></path></g><g id="svga-group-humanwrap-move" transform="matrix(1,0,0,1,0,0)"><g id="svga-group-humanwrap"><g id="svga-group-hair-back-move" transform="matrix(1,0,0,1,0,0)"><g id="svga-group-hair-back"></g></g><g id="svga-group-humanbody-back"><path id="SvgjsPath5568" d="M166.5 181.1c-10.9-6.6-27.6-8.4-35-12.1-4.9-2.5-9.1-4.7-8.9-17.8s1.9-42.4 1.9-42.4H75.4s1.6 29.4 1.9 42.4-4.2 15.6-8.9 17.8c-7.4 3.5-24.1 5.4-35 12.1-10.8 6.6-10 18.9-10 18.9v19.7h153.3V200c-.1 0 .7-12.3-10.2-18.9z" fill="#f0c7b1" stroke-width="none" opacity="1" stroke="none"></path></g><g id="svga-group-chinshadow-single"><path id="SvgjsPath5896" d="M124.5 108.9H75.4c.1 1.8 1.6 29.7 1.9 42.3 0 1.8 0 3.4-.1 4.9 6.7 7.3 14.6 11.9 22.8 11.9 8.2 0 16.1-4.6 22.8-11.9-.1-1.4-.2-3.1-.2-4.9.2-12.7 1.8-40.5 1.9-42.3z" fill="#d19271" stroke-width="none" opacity="0.65" stroke="none"></path></g><g id="svga-group-humanbody-front"><path id="SvgjsPath5569" d="M78.7 156.8c.5 4.8 1.7 9.4 3.1 13.9.8 2.3 1.6 4.6 2.6 6.9.8 2 1.7 4.2 3.1 5.9.3.4 1 0 .9-.5-.5-2.2-1.6-4.3-2.4-6.4-.9-2.2-1.7-4.4-2.5-6.6-1.5-4.4-2.8-8.9-4.1-13.3-.2-.4-.8-.3-.7.1zm41.3-1c-1.3 8.2-3.9 16.1-5.4 24.2-.1.4.4.5.6.2 3.1-7.7 4.1-16.1 5.1-24.3-.1-.2-.3-.2-.3-.1zm-25.8 11.9c-.9 3.6 1.9 8.6 6.2 7.6.5-.1.4-.8 0-1-1.4-.5-2.9-.9-3.9-2.1-1.1-1.2-1.5-2.9-1.4-4.5 0-.4-.8-.5-.9 0z" fill="#d19271" stroke-width="none" opacity="1" stroke="none"></path><path id="SvgjsPath5570" d="M177.3 219.7c-.1-6.6-.3-13.1-.3-19.7l-.3-.3c.1 0 .1 0 .2.1s.1.2.1.1v-1.4c0-.5-.1-.9-.1-1.4-.1-.9-.3-1.9-.5-2.8-.5-1.8-1.1-3.6-2-5.3-1.7-3.4-4.4-6.2-7.7-8.1-3.6-2.2-7.6-3.8-11.6-5.1-4-1.3-8.1-2.4-12.1-3.5-4-1.2-8.1-2.2-11.8-4.2-1.9-1-3.6-2.1-4.8-3.6-1.2-1.6-1.9-3.5-2.3-5.5-.8-4-.4-8.2-.3-12.4l.7-12.6 1.5-25.2.1-1.4h-1.4c-8.2 0-16.4 0-24.6.1l-24.6.3h-.9l.1.9c.8 11.9 1.6 23.8 2.1 35.7.1 3 .3 6 .2 8.9-.1 2.9-.4 5.9-1.6 8.6-.6 1.3-1.4 2.5-2.4 3.5s-2.3 1.8-3.6 2.4c-2.6 1.3-5.4 2.2-8.3 3-5.8 1.5-11.6 2.8-17.3 4.7-2.8.9-5.7 2-8.4 3.4-1.3.7-2.7 1.4-4 2.4-1.3.9-2.4 1.9-3.5 3.1-2.1 2.3-3.6 5.2-4.5 8.1-.5 1.5-.8 3-1 4.6-.1.8-.1 1.6-.1 2.4v2.3l-.2 17.9v1.3h1.4l38.3.2c12.8.1 25.5.1 38.3 0 12.8-.1 25.6-.1 38.3-.3 12.8-.2 25.6-.5 38.3-.7h.6v-.5zm-77.2-1.6H61.8l-37 .2-.1-16.6v-2.2c0-.7 0-1.4.1-2.1.1-1.4.4-2.8.8-4.2.8-2.7 2.1-5.3 3.9-7.5.9-1.1 2-2.1 3.1-2.9 1.1-.9 2.4-1.6 3.7-2.3 2.6-1.4 5.3-2.5 8.1-3.5 5.6-2 11.4-3.4 17.1-5.1 2.9-.8 5.8-1.7 8.5-3.1 1.3-.7 2.7-1.5 3.8-2.6 1.1-1.1 2-2.4 2.6-3.9 1.2-2.9 1.5-5.9 1.6-8.9 0-3-.1-6-.2-9l-1.3-34.8 23.5.4c7.7.1 15.4.1 23.1.1-.4 7.9-.8 15.9-1.1 23.8-.2 4.2-.2 8.4-.3 12.6 0 4.2-.2 8.5.8 12.8.5 2.1 1.3 4.2 2.8 6 1.4 1.7 3.4 2.9 5.3 3.8 3.9 1.9 8 2.8 12.1 3.8s8.2 2 12.2 3.3c4 1.3 7.9 2.8 11.5 5 3.2 1.9 5.8 4.7 7.5 8 .9 1.6 1.5 3.4 1.9 5.2.2.9.4 1.8.4 2.7.1.5.1.9.1 1.4V200l-.3 19c-12.6-.2-25.1-.5-37.7-.7-12.7-.1-25.5-.1-38.2-.2z" fill="#c27b55" stroke-width="none" opacity="1" stroke="none"></path></g><g id="svga-group-clothes-single"><path id="SvgjsPath11505" d="M127.8 142.4c10.7 3.1 5.9 12.4 6.7 12.7 5.2 2.2 6.4 9.8 5.2 12.4 0 0 5.1 1.6 7.9 2.4 8.6 2.4 29.9 8.2 33.1 23.5 0 0 2.6 9.2 2.6 26.7H16.7c0-17.5 2.6-26.7 2.6-26.7 3-14 23.7-22.7 32.5-24.6 3.6-.8 6.9-2.1 10-2.6 0-3-.8-8.7 4.9-11.3 2.2-1-3.5-9.3 5.8-12.6 0 0 9.6 8.8 27.9 9.4s27.4-9.3 27.4-9.3z" fill="#386e77" stroke-width="none" opacity="1" stroke="none"></path><path id="SvgjsPath11506" d="M183.4 200.5c-.4-3.2-1-6.5-2.1-9.8-1.1-3.3-3.1-6.2-5.6-8.6-2.4-2.4-5.2-4.3-8.1-5.9-2.9-1.6-5.9-2.9-9-4.1-3.1-1.1-6.2-2-9.4-2.9-2.9-.7-5.7-1.6-8.5-2.4.3-1.2.2-2.3.1-3.3-.2-1.4-.6-2.7-1.1-3.9-.6-1.2-1.3-2.4-2.3-3.4-.5-.5-1.1-.9-1.6-1.3-.2-.1-.5-.3-.8-.4v-.4c.2-1.2.4-2.6.3-3.9-.1-1.3-.4-2.7-1.1-3.9-.7-1.2-1.7-2.1-2.8-2.8-5.2-3.6-7.2-2.4-7.5-2.2 0 0-.5 3-2.9 5-2.2 1.1-3.9 2.1-6.3 2.7-4.7 1.4-9.7 1.9-14.6 1.6-4.9-.3-9.8-1.1-14.4-2.7-2.3-.8-4.6-1.8-6.7-2.9-2.1-1.1-2.6-3.2-2.6-3.2-1.8-1.4-4.1-1.1-4.6-.9-1.2.4-2.4 1-3.5 1.9-1.1.9-2 2.1-2.4 3.5-.5 1.4-.5 2.8-.4 4 0 .6.1 1.3.2 1.9.1.5.1 1.1.1 1.4-.2.1-.3.1-.5.2-.6.3-1.2.7-1.7 1.2-1.1.9-2 2.1-2.5 3.4-.9 2.2-.9 4.4-.9 6.4-3 .7-5.7 1.6-8.5 2.2-3.4.7-6.6 1.8-9.8 3.1-3.1 1.3-6.2 2.8-9.1 4.6-2.9 1.8-5.7 3.9-8.2 6.3-2.5 2.4-4.7 5.3-6 8.7-.3.8-.6 1.7-.8 2.6-.2.8-.4 1.7-.6 2.5-.3 1.7-.6 3.3-.8 5-.9 6.7-1.2 13.4-1.2 20.1 0 .8.6 1.4 1.4 1.4l166.7-.1c.7 0 1.2-.6 1.2-1.2.1-6.4-.2-13-1.1-19.5zm-4.5-8.9c.9 2.9 1.4 6.1 1.9 9.3.8 5.9 1.1 11.9 1.3 18l-25.1.4c.3-3.5.6-6.9 1-10.3.4-3.7 1-7.3 1.6-10.9.3-1.8.7-3.6 1.1-5.4.5-1.7 1.1-3.4 1.9-5.1 1.3-3 3-5.8 4.8-8.5 2.4 1.4 4.6 3.1 6.6 5.1 2.2 2 4 4.6 4.9 7.4zm-42.3-34.4c.8.9 1.4 1.9 1.9 3.1.5 1.1.8 2.3.9 3.5.1 1.2.1 2.5-.3 3.4v.1c-.1.3 0 .7.3.9-.4.5-.8.9-1.3 1.3-.3.3-.7.6-1 .8-.4.3-.7.5-1.1.8-.5.4-1.1.7-1.6 1 .2-.6.3-1.1.5-1.7.1-.7.3-1.4.3-2.1.1-1.4.1-2.9-.2-4.3-.3-1.4-.8-2.8-1.6-4.1-.7-1.1-1.5-2.1-2.5-2.9 1.1-.5 2.3-1 3.4-1.6 0 .1.1.1.1.1.3.2.2.1.2.1.3.1.5.3.8.4.3.4.7.8 1.2 1.2zM75 145.6c.8.5 1.6.9 2.4 1.4.3.3.6.5 1 .8-.7.6-1.2 1.4-1.6 2.3-.6 1.1-1 2.2-1.3 3.4-.3 1.2-.4 2.4-.5 3.6v2.7c-.7-.3-1.3-.7-2-1.1l-.3-1.8c-.1-.6-.1-1.2-.2-1.8 0-.6-.1-1.2-.1-1.8 0-.6 0-1.2.1-1.8.1-1.2.4-2.4.9-3.5.5-.9 1-1.7 1.6-2.4zm15.3 8.1c1 .3 2.1.5 3.1.8 1.1.2 2.1.4 3.2.5-2-.7-4-1.3-6-2.1-.5-.2-1-.4-1.4-.6 0-.4.1-.8.2-1.2 2.7.6 5.5 1 8.3 1.1-.2 1.3-.4 2.5-.5 3.8-.1 1.4-.1 2.8.1 4.3-1.6 0-3.2-.1-4.8-.3-1.3-.1-2.6-.2-3.9-.5V159.2c-.1-1.1-.2-2.1-.1-3.2 0-.5.1-1.1.2-1.6.1-.4.2-.9.3-1.3.4.3.8.5 1.3.6zm-2.5 2.4c-.1 1.1-.2 2.1-.1 3.2v.1c-.4-.1-.8-.2-1.3-.4.4.2.8.4 1.2.5-.2.4-.3.8-.4 1.1-.2.5-.3 1-.4 1.5-.2.8-.2 1.7-.3 2.5l-1.2-.4c-1.9-.7-3.9-1.5-5.8-2.3l-.1-1.2c0-.5-.1-1.1-.1-1.6 0-1.1.1-2.1.2-3.2.2-1.1.4-2.1.8-3.1s.8-1.9 1.4-2.8c.8.4 1.6.9 2.4 1.3 1.4.7 2.8 1.2 4.3 1.8l-.6 3zm-7.7-3.4c-.5 1-.8 2-1.1 3.1-.3 1.1-.4 2.2-.4 3.3v1.7l.1.7c-.9-.4-1.8-.8-2.6-1.2l-.1-1.5V157c.1-1.2.1-2.3.3-3.5.2-1.1.5-2.3 1-3.4.3-.8.8-1.6 1.3-2.4.1.1.2.2.3.2 1 .8 2 1.4 3.1 2.1-.8.8-1.4 1.8-1.9 2.7zm-7.5 6.7c.7.4 1.4.9 2.1 1.2l-.9.9c-.4.5-.8 1.1-1.1 1.6-.6 1.1-1 2.4-1.2 3.6-.2 1.2-.3 2.5-.3 3.8l.1 1.9c0 .4.1.7.2 1.1-.5-.3-1.1-.5-1.6-.8-.8-.4-1.5-.8-2.2-1.3V170c.1-.6.1-1.2.2-1.8.2-1.2.3-2.4.8-3.5.4-1.1.9-2.2 1.6-3.1.6-.9 1.4-1.7 2.3-2.2zm-1 13 .1-1.8c.1-1.2.2-2.4.6-3.6.3-1.2.7-2.3 1.3-3.3.5-.9 1.2-1.9 2.1-2.5.9.5 1.9.9 2.8 1.4-.6.9-1.1 1.8-1.6 2.8-.5 1.2-.9 2.4-1.1 3.6-.2 1.2-.3 2.5-.2 3.7.1.9.2 1.8.4 2.7-1.5-.5-3-1.1-4.4-1.8v-1.2zm4.5 3c0-.3-.1-.6-.1-.9v-1.8c0-1.2.2-2.4.5-3.6.3-1.2.7-2.3 1.2-3.4.4-1 1-1.9 1.6-2.8l2.4.9c1.1.4 2.2.8 3.4 1.1.5.1.9.3 1.4.4-.6 2.1-1 4.3-1.2 6.5-.2 1.9-.2 3.9 0 5.8-1.9-.3-3.8-.7-5.7-1.2-1.2-.2-2.3-.6-3.5-1zm9.5 0c.1-1.1.2-2.2.4-3.4.4-2.1.8-4.3 1.5-6.4.4.1.7.2 1.1.3 1.2.2 2.3.5 3.5.8l-4.5-1.6c0-.9.1-1.8.2-2.7.1-.5.2-1 .3-1.4.1-.4.2-.8.4-1.1.3.1.6.1.8.2l3 .6c1.6.2 3.2.4 4.8.5-.3 1.4-.6 2.8-.8 4.2-.2 1.6-.3 3.2-.4 4.9-.1 1.6 0 3.3.1 4.9.1 1.2.2 2.4.4 3.6-3.7-.1-7.4-.4-11.1-1 .1-.9.2-1.7.3-2.4zm11.1 3.3c0-1.2-.1-2.4-.1-3.7 0-1.6.1-3.2.2-4.8.1-1.6.2-3.2.5-4.8.2-1.4.4-2.9.7-4.3h.5c2.2.1 4.3.1 6.5.1-.1 3.1-.1 6.1.2 9.1.1 1.6.3 3.1.6 4.7.2 1.1.4 2.2.8 3.3l-.9.1-2.6.2c-.9 0-1.8 0-2.6.1h-3.8zm8.7-22.4c-.1-1.4-.2-2.7-.3-4.1 2-.2 3.9-.5 5.9-.9.3 1.4.4 2.9.5 4.3.1 1.5.1 3 0 4.4-.2 0-.5 0-.7.1-1.6.1-3.3.2-4.9.2-.2-1.3-.4-2.6-.5-4zm10.4 3.4c-1.2.1-2.3.2-3.5.3 0-.7 0-1.4-.1-2-.1-.8-.2-1.6-.2-2.4-.1-.8-.3-1.6-.5-2.4-.2-.6-.3-1.3-.6-1.9l3.3-.9c.7 1.5 1.1 3.1 1.3 4.7.4 1.5.4 3.1.3 4.6zm-9.1 18.7c-.2-1.1-.3-2.2-.4-3.4-.2-1.6-.2-3.1-.3-4.7-.1-3-.2-6.1-.2-9.1 1.7 0 3.3-.1 4.9-.1.3 0 .6-.1.8-.1.4 1.2.8 2.5 1.1 3.8.4 1.4.7 2.9.9 4.4.2 1.5.5 3 .6 4.5l.3 3.9-1.2.2-2.6.3-2.6.3h-1.3zm7.9-9.3c-.2-1.5-.5-3-.9-4.5-.3-1.2-.7-2.4-1.1-3.6 1.1-.1 2.2-.2 3.3-.4.8 1.1 1.4 2.4 2 3.8.5 1.4.9 2.8 1.3 4.2.3 1.4.6 2.9.8 4.3l.2 2.2c0 .5.1 1 .1 1.5-1.4.3-2.8.6-4.2.7l-1.3.2c.1-1.3.2-2.6.2-3.9-.1-1.4-.2-3-.4-4.5zm5.4-.7c-.3-1.5-.7-2.9-1.2-4.4-.5-1.2-1.1-2.4-1.9-3.6 2.1-.3 4.1-.7 6.1-1.2.9-.2 1.9-.5 2.8-.8 1 .8 1.9 1.9 2.6 3.1.7 1.2 1.3 2.4 1.8 3.8.4 1.3.8 2.7 1 4.1.1.7.2 1.4.2 2.1l.1 1.7c-.1 0-.2.1-.3.1-3.2 1.4-6.6 2.3-10 3-.3.1-.6.1-.8.2.1-1.2.2-2.5.1-3.7-.1-1.4-.2-2.9-.5-4.4zm11.7 1c-.1-1.4-.3-2.9-.7-4.3-.4-1.4-1-2.8-1.7-4-.6-1.1-1.4-2-2.4-2.9l2.7-.9c1.1.7 2 1.8 2.7 2.9.7 1.1 1.3 2.4 1.6 3.8.3 1.3.5 2.7.5 4.1 0 .7-.1 1.4-.1 2.1l-.2 1.7c-.8.4-1.7.9-2.6 1.2.1-.6.1-1.1.1-1.6.1-.6.2-1.4.1-2.1zm-5.1-25.6.7-.6.3-.3.2-.2.1-.1c.1.1.2.1.4.1l.4.2c.3.1.6.2.9.4.6.3 1.1.6 1.6.9 1 .7 1.9 1.6 2.5 2.7.6 1.1.8 2.3.8 3.6 0 1.2-.2 2.4-.5 3.7 0 .2-.1.3-.1.5v.4c0 .1 0 .1.1.2-1.2.5-2.4.9-3.6 1.3v-1.4c-.1-.6-.1-1.2-.2-1.8-.1-1.2-.5-2.3-.9-3.4-.5-1.1-1.1-2.1-1.8-3-.7-.8-1.5-1.6-2.4-2.1.5-.4 1-.7 1.5-1.1zM122 147c1.1-.6 2.1-1.3 3.1-2.1 1.7 1.4 2.8 3.3 3.6 5.4.3 1.1.6 2.2.7 3.3.1.6.1 1.1.1 1.7v1.7c-.2.1-.4.1-.6.2-.7.2-1.5.4-2.2.6l-.1-1.2c-.1-.5-.2-1.1-.2-1.6-.2-1.1-.5-2.1-.9-3.1s-.9-1.9-1.6-2.8c-.6-.7-1.3-1.4-2.1-1.9-.1 0 0-.1.2-.2zm-6.9 3.2c2.2-.8 4.4-1.7 6.4-2.9.7.6 1.3 1.3 1.8 2.1.6.9 1 1.8 1.3 2.8.3 1 .5 2 .7 3 .1.5.1 1 .2 1.5l.1 1.3c-.9.2-1.8.4-2.8.6-2 .4-4.1.7-6.1 1 0-.6 0-1.3-.1-1.9-.1-.9-.2-1.8-.4-2.6-.2-.9-.4-1.7-.8-2.6-.3-.7-.7-1.5-1.1-2.1.3-.1.6-.2.8-.2zm-10.1 2c-.1 1.4-.2 2.8-.2 4.1 0 1.3 0 2.7.1 4H98.1c-.3-1.4-.4-2.8-.4-4.3v-3.8c.8.1 1.7.1 2.5.1 1.6.1 3.2.1 4.8-.1zm-15.9-1.1-.3 1.2c-1.4-.6-2.7-1.1-4.1-1.8-1-.5-2.1-1.1-3.1-1.6 1.2.4 2.3.9 3.5 1.2 1.4.4 2.7.7 4 1zm-20.7-3.8c.5-1.7 1.9-2.9 3.7-3.6.9.7 1.8 1.3 2.7 1.9-.2.2-.5.4-.7.7-.4.5-.8 1-1.1 1.6-.6 1.1-1 2.4-1.2 3.6-.3 1.2-.3 2.5-.2 3.8.1.6.1 1.3.2 1.9l.1 1c-.8-.5-1.6-1-2.3-1.6-.5-.4-1-.8-1.5-1.3 0-.1.1-.2.1-.2.1-.3.2-.6.2-.8.1-.9 0-1.5-.1-2.1-.1-.6-.2-1.2-.2-1.7 0-1.3 0-2.3.3-3.2zm-5.2 18.9c0-1.3-.1-2.4 0-3.5 0-1.1.2-2.1.6-3.1.4-.9.9-1.7 1.7-2.4l1.2-.9c.1-.1.2-.1.3-.2l.2-.1.2-.1c.1-.1.2-.1.3-.2.2-.1.3-.3.4-.5 1 1.3 2.3 2.4 3.7 3.4-.9.6-1.6 1.4-2.2 2.2-.7 1.1-1.3 2.2-1.6 3.4-.4 1.2-.5 2.5-.5 3.7 0 .6.1 1.2.1 1.9.1.4.1.9.2 1.3a23.8 23.8 0 0 1-4.9-4c.1-.1.3-.5.3-.9zm-45.1 52.5c.1-6.1.5-12.2 1.4-18.3.2-1.6.5-3.2.9-4.8.2-.8.4-1.5.6-2.3.2-.8.4-1.5.7-2.2 1.1-2.8 3.1-5.4 5.3-7.6 1.7-1.7 3.6-3.2 5.6-4.6 1.9 2.7 3.5 5.6 4.8 8.5.7 1.7 1.4 3.4 1.9 5.1.4 1.7.8 3.6 1.1 5.4.7 3.6 1.2 7.3 1.6 10.9.4 3.3.7 6.7 1 10l-5.5-.1H18.1zm81.9.9c-6.9 0-13.9-.1-20.8-.2l-20.8-.3-15.1-.2c.4-3.4.5-6.8.4-10.1-.1-3.8-.6-7.5-1.3-11.2-.4-1.8-.7-3.7-1.3-5.5-.6-1.8-1.4-3.6-2.3-5.2-1.6-2.9-3.6-5.6-6-8 3.2-2.2 6.8-4 10.4-5.6 3-1.3 6-2.3 9.2-3 3.4-.8 6.5-2 9.6-2.6.2 0 .4-.1.5-.2.8 1 1.7 1.9 2.6 2.8l1 .9 1.1.8c.7.6 1.4 1 2.2 1.6 3 1.9 6.3 3.4 9.8 4.5 6.9 2.1 14.1 2.8 21.2 2.7 7.1-.2 14.2-1 21.2-2.7 3.5-.9 6.9-2.1 10.1-3.7 1.6-.9 3.1-1.7 4.5-2.9 1.2-.9 2.3-2 3.1-3.2.1 0 .1.1.2.1 3.1 1 6.2 2.1 9.3 2.9 3.1.9 6.1 1.9 9.1 3.1 3 1.2 5.9 2.5 8.6 4.1.2.1.5.3.7.4-2.4 2.3-4.4 5.1-6 8-.9 1.7-1.7 3.4-2.3 5.2-.6 1.9-1 3.7-1.3 5.5-.7 3.7-1.1 7.4-1.3 11.2-.1 3.5-.1 7 .4 10.4l-15.1.2c-13.8.2-27.7.3-41.6.2z" fill="#184f58" stroke-width="none" opacity="1" stroke="none"></path></g><g id="svga-group-head" transform="matrix(1,0,0,1,0,0)"><g id="svga-group-ears-left-move" transform="matrix(1,0,0,1,0,0)"><g id="svga-group-ears-left"><path id="SvgjsPath7213" d="M62.2 95.2s-4.4-4.7-5.8-6.2-3.1-4.7-5-4.1c-1.9.5-1.2 2.7-1.3 5.8-.1 3.1.3 9.1 2.2 12.4s2.9 4.5 3.5 8 2.8 4.2 4.1 3.2 4.3-7 4.4-10.2c0-3.2-1.3-7.6-2.1-8.9z" fill="#f0c7b1" stroke-width="none" opacity="1" stroke="none"></path><path id="SvgjsPath7214" d="M63.1 97.3c.3.8.5 1.5.7 2.3.4 1.6.7 3.2.7 4.9 0 .8-.2 1.6-.3 2.3l-.6 2.1c-.5 1.3-1.1 2.6-1.7 3.8-.3.6-.7 1.1-1.1 1.7-.2.2-.5.5-.8.7s-.6.3-.9.3c-.7.1-1.4-.1-2-.7s-1.1-1.4-1.4-2.3l-.2-.7-.1-.7c-.1-.4-.1-.8-.2-1.1-.2-.7-.4-1.5-.6-2.1-.5-1.4-1.3-2.7-2.1-4-.4-.6-.8-1.4-1-2.2-.3-.8-.5-1.6-.7-2.4-.3-1.6-.6-3.2-.7-4.8-.2-1.6-.2-3.2-.2-4.7 0-.8-.1-1.5-.1-2.4 0-.4 0-.8.1-1.3.1-.4.2-.9.5-1.2.2-.3.5-.5.8-.6s.6-.2 1-.2c.7.1 1.3.5 1.9 1 1.1 1 1.9 2.4 2.7 3.5 1.9 2.2 3.7 4.4 5.6 6.5.1.8.4 1.6.7 2.3zm-7-7.9c-1.1-1-1.9-2.3-2.8-3.1-.5-.4-.9-.7-1.4-.8-.4 0-.9.1-1.2.4s-.4.9-.4 1.7v2.3c0 .8-.1 1.5-.1 2.3s0 1.5.1 2.3c.1 1.6.3 3.1.7 4.7.4 1.5 1 3 1.8 4.2.8 1.3 1.7 2.5 2.4 4 .3.8.6 1.6.8 2.4l.3 1.2.1.5.2.5c.2.6.6 1.1 1 1.4s.9.4 1.3.3c.2 0 .4-.1.6-.2.2-.1.3-.3.5-.5.3-.4.7-1 1-1.5.6-1.1 1.2-2.3 1.7-3.5s1-2.5 1.2-3.8c.2-1.4 0-3-.2-4.5-.1-.8-.3-1.6-.5-2.3-.2-.8-.5-1.5-.9-2.1-2.2-2.1-4.2-4-6.2-5.9z" fill="#e1ac8f" stroke-width="none" opacity="1" stroke="none"></path><path id="SvgjsPath7215" d="M50.4 89.6c.5-1.9 2.1-1 3 .4 1.9 2.6 3.2 6.6 3.6 10 0 .1-.1.2-.1.1-.1.1-.2.1-.2-.1-1.2-.5-1.6-.2-1.2.8 0 .3.1.6.3.9.2.5.6 1 .9 1.5.5.8 1.2 1.5 1.7 2.3.2.3 0 .6-.2.4-1.4-1-3.9-4.3-3.2-6.6.3-.8 1-1.1 1.5-.7-1.1-3.6-4-12-5.8-8.8-.2.1-.3-.1-.3-.2z" fill="#d19271" stroke-width="none" opacity="1" stroke="none"></path><path id="SvgjsPath7216" d="M53.3 90.1c-1 2-1.4 4.4-.9 7.1.3 1.5 2.9 9.5 4.9 8.4.2-.1.4.3.2.5-2 1.8-4.2-4.5-4.9-6.5-1.1-3.4-1.4-7.5.5-9.7.1-.1.2 0 .2.2z" fill="#d19271" stroke-width="none" opacity="1" stroke="none"></path></g></g><g id="svga-group-ears-right-move" transform="matrix(1,0,0,1,0,0)"><g id="svga-group-ears-right"><path id="SvgjsPath7217" d="M138.08 95.16s4.4-4.7 5.8-6.2 3.1-4.7 5-4.1c1.9.5 1.2 2.7 1.3 5.8.1 3.1-.3 9.1-2.2 12.4s-2.9 4.5-3.5 8-2.8 4.2-4.1 3.2-4.3-7-4.4-10.2c0-3.2 1.3-7.6 2.1-8.9z" fill="#f0c7b1" stroke-width="none" opacity="1" stroke="none"></path><path id="SvgjsPath7218" d="M137.9 95.1c1.9-2 3.8-4.3 5.6-6.5.9-1 1.6-2.4 2.7-3.5.5-.5 1.2-1 1.9-1 .3 0 .7 0 1 .2.3.1.6.3.8.6.2.3.4.8.5 1.2.1.4.1.9.1 1.3 0 .8-.1 1.6-.1 2.4 0 1.5-.1 3.2-.2 4.7-.1 1.6-.4 3.2-.7 4.8-.2.8-.4 1.6-.7 2.4s-.6 1.5-1 2.2c-.7 1.3-1.5 2.7-2.1 4-.3.7-.5 1.4-.6 2.1-.1.4-.1.7-.2 1.1l-.1.7-.2.7c-.3.9-.8 1.7-1.4 2.3-.6.5-1.4.8-2 .7-.3 0-.6-.1-.9-.3-.3-.2-.6-.5-.8-.7-.4-.5-.8-1.1-1.1-1.7-.6-1.2-1.2-2.4-1.7-3.8-.2-.7-.5-1.4-.6-2.1-.2-.7-.3-1.5-.3-2.3 0-1.7.3-3.3.7-4.9.2-.8.4-1.6.7-2.3 0-.8.3-1.6.7-2.3zm.1.1c-.4.6-.6 1.4-.9 2.1-.2.8-.4 1.5-.5 2.3-.3 1.5-.4 3.1-.2 4.5s.7 2.6 1.2 3.8c.5 1.2 1.1 2.4 1.7 3.5.3.5.6 1.1 1 1.5.2.2.3.4.5.5s.4.2.6.2c.4.1.9 0 1.3-.3s.7-.8 1-1.4l.2-.5.1-.5.3-1.2c.2-.8.5-1.6.8-2.4.7-1.5 1.6-2.8 2.4-4 .8-1.2 1.4-2.6 1.8-4.2.4-1.5.6-3.1.7-4.7.1-.8.1-1.6.1-2.3 0-.8-.1-1.5-.1-2.3v-2.3c0-.7-.1-1.4-.4-1.7-.3-.3-.8-.5-1.2-.4-.4 0-.9.4-1.4.8-.9.8-1.8 2.1-2.8 3.1-2.3 2-4.3 3.9-6.2 5.9z" fill="#e1ac8f" stroke-width="none" opacity="1" stroke="none"></path><path id="SvgjsPath7219" d="M149.6 89.6c-.5-1.9-2.1-1-3 .4-1.9 2.6-3.2 6.6-3.6 10 0 .1.1.2.1.1.1.1.2.1.2-.1 1.2-.5 1.6-.2 1.2.8 0 .3-.1.6-.3.9-.2.5-.6 1-.9 1.5-.5.8-1.2 1.5-1.7 2.3-.2.3 0 .6.2.4 1.4-1 3.9-4.3 3.2-6.6-.3-.8-1-1.1-1.5-.7 1.1-3.6 4-12 5.8-8.8.2.1.3-.1.3-.2z" fill="#d19271" stroke-width="none" opacity="1" stroke="none"></path><path id="SvgjsPath7220" d="M146.7 90.1c1 2 1.4 4.4.9 7.1-.3 1.5-2.9 9.5-4.9 8.4-.2-.1-.4.3-.2.5 2 1.8 4.2-4.5 4.9-6.5 1.1-3.4 1.4-7.5-.5-9.7-.1-.1-.2 0-.2.2z" fill="#d19271" stroke-width="none" opacity="1" stroke="none"></path></g></g><g id="svga-group-faceshape-wrap"><g id="svga-group-faceshape-single"><path id="SvgjsPath5886" d="M143.6 82c-1.2-30.1-20.8-46.6-43.6-46.6S57.6 51.9 56.4 82c0 .9-.1 1.9-.1 2.8 0 31.9 20.2 68.9 43.7 68.9s43.7-37 43.7-68.9c0-1 0-1.9-.1-2.8z" fill="#f0c7b1" stroke-width="none" opacity="1" stroke="none"></path><path id="SvgjsPath5887" d="M100 153.7c23.5 0 43.7-37 43.7-68.9 0-1 0-1.9-.1-2.8-1.2-30.1-20.8-46.6-43.6-46.6S57.6 51.9 56.4 82c0 .9-.1 1.9-.1 2.8 0 31.9 20.2 68.9 43.7 68.9zm-33.9-33.2c-1.4-3-2.7-6.1-3.8-9.2s-2-6.3-2.8-9.6c-3.1-12.9-3.4-27 1.8-39.4l1.1-2.2c.4-.7.7-1.5 1.1-2.2l1.3-2.1.7-1.1c.2-.3.5-.7.8-1 1-1.3 2-2.6 3.2-3.8.6-.6 1.1-1.2 1.7-1.8l1.9-1.6c5.1-4.2 11.2-6.8 17.5-8.1 1.6-.4 3.2-.5 4.8-.7.8-.1 1.6-.1 2.4-.1l2.4-.1c3.2.1 6.4.4 9.6 1.1.8.2 1.6.3 2.3.5l2.3.7 1.2.4 1.1.5 2.2.9c.7.3 1.4.8 2.1 1.1.7.4 1.5.7 2.1 1.2 1.3.9 2.8 1.7 4 2.8 5.1 4.1 9.3 9.4 12 15.5s4.1 12.8 4.4 19.6c.3 6.7-.5 13.5-2.2 20-1.6 6.5-4 12.8-7 18.8s-6.6 11.5-10.7 16.5c-2.1 2.5-4.4 4.8-6.8 6.8-2.5 2-5.1 3.7-8 4.9-2.8 1.2-5.8 1.9-8.8 1.9s-6-.7-8.8-1.9c-5.7-2.4-10.6-6.8-14.7-11.9-4.2-4.7-7.6-10.4-10.4-16.4z" fill="#c27b55" stroke-width="none" opacity="1" stroke="none"></path></g></g><g id="svga-group-mouth-single-move" transform="matrix(1,0,0,1,0,0)"><g id="svga-group-mouth-single"><path id="SvgjsPath7049" d="M85.34 126.92s2.37-.51 5.3-1.54c2.87-1.01 6.09-2.05 8.83-2.14 3.98-.13 6.69.33 9.92 1.61 4.77 1.89 7.89 2.17 7.89 2.17s-2.81 2.71-10.17 4.41c-7.36 1.7-14.09.36-17.26-1.47-3.17-1.83-4.51-3.04-4.51-3.04z" fill="#da7c87" stroke-width="none" opacity="1" transform="translate(0 2)" stroke="none"></path><path id="SvgjsPath7050" d="M118.94 126.28c-.72.2-2.15 1.09-8.57.73-2.91-.16-5.81-.6-8.73-.65-2.85-.05-5.66.33-8.49.57-6.77.58-8.72-.58-9.3-.72-.16-.04-.27.19-.11.27 5.39 2.95 12.12.73 17.9.89 5.62.16 12.32 2.08 17.53-.92.27-.16.09-.26-.23-.17z" fill="#cb5f6c" stroke-width="none" opacity="1" transform="translate(0 2)" stroke="none"></path></g></g><g id="svga-group-eyes-left-move" transform="matrix(1,0,0,1,0,0)"><g id="svga-group-eyes-left"><g id="svga-group-eyesback-left"><path id="SvgjsPath7503" d="M90.2 96.4s-.9.8-3.3 1.1-8.7 1.1-13.3-.2c-4.6-1.3-4.2-1.5-4.3-2.1-.1-.5.7-2.4 5-3.2 4.3-.8 8.5.1 10.6.9 2 .9 5.3 3.5 5.3 3.5z" fill="#ffffff" stroke-width="none" opacity="1"></path></g><g id="svga-group-eyesiriswrapper-left" transform="matrix(1,0,0,1,0,0)"><g id="svga-group-eyesiriscontrol-left" transform="matrix(1,0,0,1,0,0)"><g id="svga-group-eyesiris-left"><path id="SvgjsPath8012" d="M80.1 88.1c3 0 5.5 2.4 5.5 5.5S83.1 99 80.1 99s-5.5-2.4-5.5-5.5 2.4-5.4 5.5-5.4z" fill="#4e60a3" stroke-width="none" opacity="1"></path><path id="SvgjsPath8013" d="M80.1 99.3c-3.2 0-5.7-2.6-5.7-5.7 0-3.2 2.6-5.7 5.7-5.7 3.2 0 5.7 2.6 5.7 5.7s-2.6 5.7-5.7 5.7zm0-11c-2.9 0-5.2 2.3-5.2 5.2s2.3 5.2 5.2 5.2 5.2-2.3 5.2-5.2c-.1-2.8-2.4-5.2-5.2-5.2z" fill="#253984" stroke-width="none" opacity="1"></path><path id="SvgjsPath8014" d="M80.1 90.6c1.6 0 2.9 1.3 2.9 2.9s-1.3 2.9-2.9 2.9-2.9-1.3-2.9-2.9 1.2-2.9 2.9-2.9z" fill="#000000" stroke-width="none" opacity="1"></path><path id="SvgjsPath8015" d="M78.7 90.5c.6 0 1 .5 1 1s-.5 1-1 1-1-.5-1-1 .5-1 1-1zm3.4 4.7c.2 0 .4.2.4.4s-.2.4-.4.4-.4-.2-.4-.4.2-.4.4-.4z" fill="#ffffff" stroke-width="none" opacity="1"></path></g></g></g><g id="svga-group-eyesfront-left"><path id="SvgjsPath7511" d="M73.6 97.3c4.6 1.3 10.9.5 13.3.2 2.4-.3 3.3-1.1 3.3-1.1s-3.2-2.6-5.3-3.5c-2.1-.9-6.3-1.7-10.6-.9-3.2.6-4.4 1.8-4.8 2.5 0-6.3 4.8-11.5 10.6-11.5 5.9 0 10.6 5.2 10.6 11.5S86 106 80.1 106c-5.5 0-10-4.5-10.6-10.4.3.5 1.2.8 4.1 1.7z" fill="#f0c7b1" stroke-width="none" opacity="1" stroke="none"></path><path id="SvgjsPath7512" d="M90.1 95.9c-1.2-3.3-4.1-5.6-7.5-6.2-3.9-.7-7.5 1-10.7 2.9-.1 0-.2-.1-.1-.1 5.5-4.7 16.4-4.9 18.5 3.5-.1-.1-.2 0-.2-.1z" fill="#e1ac8f" stroke-width="none" opacity="1" stroke="none"></path><path id="SvgjsPath7513" d="M90.2 96.6c-5.3-4.4-12.4-6.2-18.9-3.1-.3.1-.5.3-.8.4-1 1.3-.9 2.1.4 2.2.7.2 1.4.4 2.1.5 1.8.4 3.7.6 5.6.7 3.4.2 6.7-.1 10-.4.2 0 .2.2 0 .3-4.4 1.4-9.2 1.3-13.7.7-1.6-.2-8.7-.9-5.9-4.3 1-1.2 3.2-1.7 4.7-2 2.1-.5 4.2-.6 6.3-.4 3.8.5 7.7 2.3 10.3 5.2.2.1 0 .3-.1.2z" fill="#000000" stroke-width="none" opacity="1" stroke="none"></path></g></g></g><g id="svga-group-eyes-right-move" transform="matrix(1,0,0,1,0,0)"><g id="svga-group-eyes-right"><g id="svga-group-eyesback-right"><path id="SvgjsPath7504" d="M109.8 96.4s.9.8 3.3 1.1 8.7 1.1 13.3-.2c4.6-1.3 4.2-1.5 4.3-2.1.1-.5-.7-2.4-5-3.2-4.3-.8-8.5.1-10.6.9-2 .9-5.3 3.5-5.3 3.5z" fill="#ffffff" stroke-width="none" opacity="1"></path></g><g id="svga-group-eyesiriswrapper-right" transform="matrix(1,0,0,1,0,0)"><g id="svga-group-eyesiriscontrol-right" transform="matrix(1,0,0,1,0,0)"><g id="svga-group-eyesiris-right"><path id="SvgjsPath8016" d="M119.9 88.1c3 0 5.5 2.4 5.5 5.5S123 99 119.9 99s-5.5-2.4-5.5-5.5 2.5-5.4 5.5-5.4z" fill="#4e60a3" stroke-width="none" opacity="1"></path><path id="SvgjsPath8017" d="M119.9 99.3c-3.2 0-5.7-2.6-5.7-5.7 0-3.2 2.6-5.7 5.7-5.7 3.2 0 5.7 2.6 5.7 5.7s-2.5 5.7-5.7 5.7zm0-11c-2.9 0-5.2 2.3-5.2 5.2s2.3 5.2 5.2 5.2 5.2-2.3 5.2-5.2c0-2.8-2.3-5.2-5.2-5.2z" fill="#253984" stroke-width="none" opacity="1"></path><path id="SvgjsPath8018" d="M119.9 90.6c1.6 0 2.9 1.3 2.9 2.9s-1.3 2.9-2.9 2.9-2.9-1.3-2.9-2.9 1.3-2.9 2.9-2.9z" fill="#000000" stroke-width="none" opacity="1"></path><path id="SvgjsPath8019" d="M118.6 90.5c.6 0 1 .5 1 1s-.5 1-1 1-1-.5-1-1 .5-1 1-1zm3.4 4.7c.2 0 .4.2.4.4s-.2.4-.4.4-.4-.2-.4-.4.2-.4.4-.4z" fill="#ffffff" stroke-width="none" opacity="1"></path></g></g></g><g id="svga-group-eyesfront-right"><path id="SvgjsPath7514" d="M126.4 97.3c-4.6 1.3-10.9.5-13.3.2-2.4-.3-3.3-1.1-3.3-1.1s3.2-2.6 5.3-3.5c2.1-.9 6.3-1.7 10.6-.9 3.2.6 4.4 1.8 4.8 2.5 0-6.3-4.8-11.5-10.6-11.5-5.9 0-10.6 5.2-10.6 11.5S114 106 119.9 106c5.5 0 10-4.5 10.6-10.4-.3.5-1.2.8-4.1 1.7z" fill="#f0c7b1" stroke-width="none" opacity="1" stroke="none"></path><path id="SvgjsPath7517" d="M109.9 95.9c1.2-3.3 4.1-5.6 7.5-6.2 3.9-.7 7.5 1 10.7 2.9.1 0 .2-.1.1-.1-5.5-4.7-16.4-4.9-18.5 3.5.1-.1.2 0 .2-.1z" fill="#e1ac8f" stroke-width="none" opacity="1" stroke="none"></path><path id="SvgjsPath7518" d="M109.8 96.6c5.3-4.4 12.4-6.2 18.9-3.1.3.1.5.3.8.4 1 1.3.9 2.1-.4 2.2-.7.2-1.4.4-2.1.5-1.8.4-3.7.6-5.6.7-3.4.2-6.7-.1-10-.4-.2 0-.2.2 0 .3 4.4 1.4 9.2 1.3 13.7.7 1.6-.2 8.7-.9 5.9-4.3-1-1.2-3.2-1.7-4.7-2-2.1-.5-4.2-.6-6.3-.4-3.8.5-7.7 2.3-10.3 5.2-.2.1 0 .3.1.2z" fill="#000000" stroke-width="none" opacity="1" stroke="none"></path></g></g></g><g id="svga-group-facehighlight-single"></g><g id="svga-group-eyebrows-left-move" transform="matrix(1,0,0,1,0,0)"><g id="svga-group-eyebrows-left-rotate" transform="matrix(1,1.7453292519943295e-9,-1.7453292519943295e-9,1,1.4176201545978984e-7,-1.3606350535155798e-7)"><g id="svga-group-eyebrows-left"><path id="SvgjsPath8417" d="M67.6 82.5c.1-.5.6-.7 1-1 .3-.2.7-.5 1-.7 0-.1 0-.2.1-.3 1.1-1.1 2.9-1.6 4.4-2.1.8-.8 2.1-.7 3.3-.4 1.4-.5 3.4.2 4.5.9.1.1.2.1.2.2.1 0 .3.1.4.1.8.2 1.4.4 1.9 1 1.2.5 2.4 1.1 3.2 2.1.6.2 1.2.5 1.7 1 .2.1.4.2.5.4h.2c.2 0 .4.2.6.3v-.2c-.1-.2.2-.3.3-.1.5.7.6 1.8.1 2.5 0 .1-.1.3-.1.4-.3.4-.6.5-.9.5-.6.2-1.2.2-1.7-.2-2-.1-4.2-1.3-5.9-2.3-.9-.5-2.5-1.3-3.5-2.3-.9-.1-1.8-.3-2.7-.5-1.1-.2-2.3-.2-3.3-.6-.2.1-.4.1-.6.2-.5.3-1.1.6-1.6.8-.6.3-1.2.6-1.9.6-.3 0-.5.2-.8.2-.3 0-.5-.3-.4-.5z" fill="#2a232b" stroke-width="none" opacity="1"></path><path id="SvgjsPath8418" d="M85.9 81.1c0-.1.1-.3.3-.1 1.3 1.3 1.8 3.6 1 5.3-.1.2-.4.1-.4-.1-.1-.1-.1-.2-.2-.3-.1-.1.1-.2.2-.2h.1c.1-.7.2-1.4 0-2.1-.2-.8-.6-1.6-1-2.5zm1.8.7c1.3 1.2 2.6 3.4 1.9 5.3-.1.2-.4.2-.4-.1.1-2-.9-3.2-1.8-4.9-.2-.3.1-.5.3-.3zm-8-3.4c3.3.5 5.1 4.2 5.8 7.1.1.2-.2.3-.3.1-.7-1.2-1.1-2.6-1.9-3.8-1-1.4-2.4-2.2-3.7-3.1-.2-.1-.1-.3.1-.3zm-2.6-.7c1.1 1 1.8 2.4 2.8 3.5 1.1 1.2 2.3 2.1 3.6 3 .2.1 0 .4-.2.3-2.9-1.3-4.9-3.8-6.7-6.4-.3-.3.2-.6.5-.4zm-2.4.3c.8.1 1.3.9 1.8 1.5.4.5.7 1 1.3 1.3.5.3.9.6 1.3 1 .2.2-.1.5-.3.3-.8-.6-1.7-.9-2.4-1.7-.3-.3-.5-.7-.8-1.1-.3-.4-.7-.6-1-1-.2 0-.1-.3.1-.3zm-5.3 3c1.5-1.4 4.2-1.4 5.8-.2.2.1.1.4-.2.4-1.1-.3-2.1-.6-3.3-.4-.8.2-1.4.6-2.2.6-.2-.1-.3-.3-.1-.4z" fill="#3a353a" stroke-width="none" opacity="1"></path><path id="SvgjsPath8419" d="M90.6 82.6c-.1-.1-.2 0-.2.1.2.7.7 1.5.7 2.3 0 1.6-1.5 1.9-2.7 1.6-.6-.1-1.2-.3-1.8-.6.3-1.7-.2-3.7-1.2-5.3 1.5 1 2.9 2.3 4.5 2.9.2.1.4-.2.3-.4-1.3-1.9-4.1-3.2-6.1-4.2-2.2-1.1-4.4-1.8-6.9-1.7-2.3 0-4.5.6-6.4 1.9-2.1 1.4-3.7 3.3-5.5 4.9-.4.4.2 1 .7.7 2.6-2.2 5.9-3.2 9.3-2.8 3.2.4 5.8 2.3 8.5 3.8 1.8 1 4.7 2.5 6.8 1.6 2-1 1.1-3.5 0-4.8zm-14.1-4.4c-.1.1-.1.1-.1.2.3 1 1 1.9 1.7 2.7.2.3.4.5.6.8-.3-.1-.6-.2-.8-.3-.1 0-.2-.1-.3-.1-1.2-.7-2.2-1.6-3.4-2.4-.1-.1-.3.1-.2.2.5.7 1.1 1.3 1.8 1.7-.2 0-.5-.1-.7-.1-.2-.1-.3-.2-.5-.3-.1-.1-.2-.1-.3-.2-.1 0-.2-.1-.3-.1-.1-.1-.2.1-.1.2l.2.2c.1.1.2.1.2.1-2.1-.1-4.2.4-6.2 1.3 2.4-2.1 5.2-3.6 8.4-3.9zm9.5 7.6c-.6-.2-1.1-.5-1.6-.8-1.4-.8-2.9-1.7-4.3-2.5-.5-.6-.9-1.2-1.4-1.8-.6-.8-1.1-1.8-1.8-2.5h.8c2.4.1 4.5.9 6.6 2 .5.9 1 1.8 1.3 2.8.3.9.3 1.9.4 2.8z" fill="#1b141c" stroke-width="none" opacity="1"></path></g></g></g><g id="svga-group-eyebrows-right-move" transform="matrix(1,0,0,1,0,0)"><g id="svga-group-eyebrows-right-rotate" transform="matrix(1,1.7453292519943295e-9,-1.7453292519943295e-9,1,1.4176202967064455e-7,-2.127084570702209e-7)"><g id="svga-group-eyebrows-right"><path id="SvgjsPath8420" d="M132.4 82.5c-.1-.5-.6-.7-1-1-.3-.2-.7-.5-1-.7 0-.1 0-.2-.1-.3-1.1-1.1-2.9-1.6-4.4-2.1-.8-.8-2.1-.7-3.3-.4-1.4-.5-3.4.2-4.5.9-.1.1-.2.1-.2.2-.1 0-.3.1-.4.1-.8.2-1.4.4-1.9 1-1.2.5-2.4 1.1-3.2 2.1-.6.2-1.2.5-1.7 1-.2.1-.4.2-.5.4h-.2c-.2 0-.4.2-.6.3v-.2c.1-.2-.2-.3-.3-.1-.5.7-.6 1.8-.1 2.5 0 .1.1.3.1.4.3.4.6.5.9.5.6.2 1.2.2 1.7-.2 2-.1 4.2-1.3 5.9-2.3.9-.5 2.5-1.3 3.5-2.3.9-.1 1.8-.3 2.7-.5 1.1-.2 2.3-.2 3.3-.6.2.1.4.1.6.2.5.3 1.1.6 1.6.8.6.3 1.2.6 1.9.6.2.2.5.3.8.3.3-.1.5-.4.4-.6z" fill="#2a232b" stroke-width="none" opacity="1"></path><path id="SvgjsPath8421" d="M114.1 81.1c.1-.2-.1-.3-.2-.2-1.3 1.3-1.8 3.6-1 5.3.1.2.4.1.4-.1.1-.1.1-.2.2-.3.1-.1-.1-.2-.2-.2h-.1c-.1-.7-.2-1.4 0-2.1.1-.7.5-1.5.9-2.4zm-1.8.7c-1.3 1.2-2.6 3.4-1.9 5.3.1.2.4.2.4-.1-.1-2 .9-3.2 1.8-4.9.2-.3-.1-.5-.3-.3zm8-3.4c-3.3.5-5.1 4.2-5.8 7.1-.1.2.2.3.3.1.7-1.2 1.1-2.6 1.9-3.8 1-1.4 2.4-2.2 3.7-3.1.2-.1.1-.3-.1-.3zm2.6-.7c-1.1 1-1.8 2.4-2.8 3.5-1.1 1.2-2.3 2.1-3.6 3-.2.1 0 .4.2.3 2.9-1.3 4.9-3.8 6.7-6.4.3-.3-.2-.6-.5-.4zm2.4.3c-.8.1-1.3.9-1.8 1.5-.4.5-.7 1-1.3 1.3-.5.3-.9.6-1.3 1-.2.2.1.5.3.3.8-.6 1.7-.9 2.4-1.7.3-.3.5-.7.8-1.1.3-.4.7-.6 1-1 .2 0 .1-.3-.1-.3zm5.3 3c-1.5-1.4-4.2-1.4-5.8-.2-.2.1-.1.4.2.4 1.1-.3 2.1-.6 3.3-.4.8.2 1.4.6 2.2.6.2-.1.3-.3.1-.4z" fill="#3a353a" stroke-width="none" opacity="1"></path><path id="SvgjsPath8422" d="M109.5 87.3c2.1.9 4.9-.6 6.8-1.6 2.8-1.5 5.3-3.4 8.5-3.8 3.4-.4 6.7.6 9.3 2.8.4.4 1.1-.3.6-.7-1.9-1.6-3.4-3.6-5.5-4.9-1.9-1.2-4.1-1.8-6.4-1.9-2.4 0-4.7.7-6.9 1.7-2 1-4.8 2.3-6.1 4.2-.1.2.1.5.3.4 1.6-.6 3-1.9 4.5-2.9-1 1.6-1.6 3.6-1.2 5.3l-1.8.6c-1.3.3-2.7 0-2.7-1.6 0-.8.4-1.6.7-2.3 0-.1-.1-.2-.2-.1-1.1 1.4-2 3.9.1 4.8zm22.3-5.1c-1.9-.9-4-1.4-6.2-1.3.1 0 .2-.1.2-.1l.2-.2c.1-.1 0-.3-.1-.2-.1 0-.2.1-.3.1-.1 0-.2.1-.3.2-.2.1-.4.2-.5.3-.2 0-.5.1-.7.1.7-.5 1.4-1 1.8-1.7.1-.1-.1-.3-.2-.2-1.2.8-2.2 1.7-3.4 2.4-.1 0-.2.1-.3.1-.3.1-.6.2-.8.3.2-.2.4-.5.6-.8.6-.8 1.3-1.7 1.7-2.7 0-.1 0-.2-.1-.2 3.3.2 6.1 1.7 8.4 3.9zm-17.4.8c.3-1 .8-1.9 1.3-2.8 2.1-1.1 4.2-1.9 6.6-2h.8c-.7.7-1.2 1.7-1.8 2.5-.4.6-.9 1.2-1.4 1.8-1.5.8-2.9 1.7-4.3 2.5-.5.3-1.1.6-1.6.8.1-.9.1-1.9.4-2.8z" fill="#1b141c" stroke-width="none" opacity="1"></path></g></g></g><g id="svga-group-beardwrap"><g id="svga-group-beard-single-move" transform="matrix(1,0,0,1,0,0)"><g id="svga-group-beard-single"><path id="SvgjsPath11096" d="M83.9 145.3c.7 3.5 3.2 7.2 4.9 9.4 2 2.5 7.1 3.1 7.1 3.1v-.8s.1.8 2.4 1.3 4.6-.1 4.6-.1l1.7-1.4-.1 1.1s2.1-.1 3.7-1.1v1.1s2.7-1.6 5-6.3c2.4-4.7 3.7-5.6 2-8.3-2-3-31.1-5.2-31.3 2z" fill="#2a232b" stroke-width="none" opacity="1"></path><path id="SvgjsPath11097" d="M90.4 155c-.6-1-1-2.1-1.6-3.1-.1-.1-.3-.1-.3.1.2.7.5 1.4.9 2-.8-.7-1.5-1.5-2.1-2.4-1.6-2.3-2.3-4.9-3-7.5-.1-.2-.3-.1-.3 0 0 5.2 4 11.6 9 13.4.2.1.4-.2.2-.4-1-.7-1.9-1.3-2.8-2.1zm6.1.6c-.1-.2-.4-.1-.3.1.1.8.3 1.5.7 2.3-1.9-2.2-3.6-4.4-4.7-7.2-.1-.2-.3-.1-.3.1.6 2.4 1.8 4.8 3.5 6.7-.7-.3-1.4-.6-2-1.2-.8-.7-1.6-1.5-2.3-2.3-.1-.1-.4.1-.3.2 1.2 1.7 3 4.2 5.3 4 .4.4.9.8 1.4 1.1 0 .1.1.1.1.2.1.2.5 0 .4-.2-.5-1.2-.9-2.6-1.5-3.8zm1.4 1.5c-.2-.3-.6 0-.4.3.4.7 1 1.4 1.8 1.6.2 0 .3-.2.2-.3-.6-.6-1.2-1-1.6-1.6zm-9.8-7.1c.2.2.5-.1.4-.4-1.3-1.8-2.4-3.4-3.2-5.5-.1-.2-.4-.1-.4.1.3 2.2 1.4 4.5 3.2 5.8zm.5-1.5c.3 1 .9 2.3 1.9 2.7.2.1.4-.2.3-.4-.3-.4-.7-.7-1-1.1-.3-.4-.6-.9-.8-1.4 0-.2-.4-.1-.4.2zm13.3 7.1c-.3 1-.5 2-.9 2.9-.1.1.1.3.2.1.6-.9 1-1.9 1-3 0-.2-.3-.2-.3 0zm2-2.3c-.7 1.8-1.3 3.5-2.4 5.1-.1.2.2.4.3.3 1.3-1.4 2.5-3.3 2.6-5.2.1-.5-.4-.5-.5-.2zm.7 1.8c-.3.4-.5 1-.7 1.5-.3.5-.5.9-.9 1.4-.2.2.2.5.4.3.8-.8 1.7-1.9 1.8-3-.1-.4-.5-.4-.6-.2zm1.8.1c-.4.3-.7.8-1 1.2-.4.4-.8.8-1.2 1.1-.3.2 0 .8.3.5.5-.3 1-.7 1.4-1.2.4-.4.8-.9.9-1.5.1-.1-.2-.2-.4-.1zm5.3-6.2c.1-.3-.4-.6-.6-.2-1.4 3-2.5 6.5-5.2 8.6-.2.2.1.5.3.4 3-1.6 4.9-5.8 5.5-8.8zm1.3.4c-1.6 2.4-2.6 5.1-4.4 7.3.1-.2.1-.4.2-.6 0-.2-.2-.3-.4-.1-.3.5-.5 1.1-.7 1.6v.1c0 .2.2.4.3.2 2.7-1.9 4.3-5.3 5.3-8.4.1-.2-.2-.3-.3-.1zm2.1-5.8c0-.4-.6-.4-.6 0-.2 3.4-.8 6.6-2.5 9.6-.1.2.2.3.2.1 1.9-2.8 3.1-6.2 2.9-9.7zm-20.4 7.7c-1.5-2.4-2.8-4.5-3.4-7.3-.1-.4-.8-.2-.7.2.5 2.7 1.6 5.6 3.6 7.5.2.2.6-.1.5-.4zm2.5 3c-1.1-2.2-2.4-4.2-3.4-6.4-.1-.2-.3-.1-.3.1.7 2.3 1.7 4.8 3.3 6.6.3.2.6 0 .4-.3zm1.2.5c-.1-.2-.2-.4-.2-.6-.1-.2-.1-.5-.2-.7-.1-.2-.1-.4-.2-.6-.2-.7-.2-1.3-.4-2-.1-.2-.4-.2-.4.1-.1 1.4.5 2.8 1.1 4 .1.1.4 0 .3-.2zm-8.9-9.1c-.4-1-1-2-1.4-3.1-.1-.1-.3-.1-.2.1.3 1.1.7 2.2 1.4 3.1 0 .1.3.1.2-.1zm11.5 10.2c.2-1.3.3-2.6.4-3.9 0-.1-.1-.1-.1 0-.1 1.3-.4 2.6-.4 3.9h.1zm-.7-1.5c0-.2-.4-.2-.4 0-.3.8-.3 1.8-.4 2.7-.4-.6-.8-1.2-1.2-1.9-.1-.1-.3 0-.2.1 0 .1.1.3.1.4 0 .1.1.2.1.3v.1c0 .1.1.1.1.2.3.8.8 1.6 1.5 2.1.1.1.3 0 .2-.2-.1-.3-.3-.6-.5-.8.5-.9.9-2 .7-3zm3.1-4.3c.4-1.6.5-3.3.6-5 0-.5-.7-.5-.7 0-.1 1.6-.3 3.3-.4 4.9 0 .4.5.4.5.1zm1.7 3.2c.8-1.7 1.2-3.7 1.4-5.6 0-.2-.4-.2-.4 0-.2 1.9-.7 3.6-1.3 5.4 0 .2.3.3.3.2zm3.8-3.1c.7-2 .9-4.2.7-6.4 0-.2-.3-.2-.3 0 .1 2.1-.3 4.2-.7 6.3 0 .2.3.3.3.1zM98.5 146c0-.7-.2-1.4-.2-2.1 0-.2-.3-.1-.3 0 .1.7.1 1.5.3 2.1 0 .1.2.1.2 0zm-1.9 1.2c0-1.6-.3-3.1-.2-4.7 0-.3-.4-.3-.4 0 0 1.6-.1 3.2.3 4.7 0 .3.3.3.3 0zm4.6 9.5c-.1-.2-.4-.2-.4 0-.2.6-.3 1.3-.3 1.9 0 .2.3.3.4.1.2-.6.4-1.4.3-2z" fill="#1b141c" stroke-width="none" opacity="1"></path></g></g></g><g id="svga-group-mustache-single-move" transform="matrix(1,0,0,1,0,0)"><g id="svga-group-mustache-single"><path id="SvgjsPath10983" d="M101.9 123.6c.5.3 2.1.5 4 .4 1.9-.1 12.6-.3 13.6-.5s3.2 3.7 3.8 3.1.4-7.5-.4-7.8c-.8-.3-6.1-1.3-9.5-1.4s-11 .5-12.1 1h-1.6c-1.1-.5-8.7-1.1-12.1-1s-8.7 1.1-9.5 1.4c-.8.3-1 7.2-.4 7.8s2.8-3.3 3.8-3.1 11.7.4 13.6.5 3.5-.1 4-.4l1.4-.9 1.4.9z" fill="#2a232b" stroke-width="none" opacity="1"></path><path id="SvgjsPath10984" d="M99.8 119.3c-2.1 2-4.3 3.1-7.1 3.7-.2 0-.1.3 0 .3 2.7-.2 5.6-1.6 7.4-3.7.2-.2-.1-.5-.3-.3zm-2.1.1c-3.5 1.6-6.8 2.6-10.6 3.2-.2 0-.1.3 0 .3 3.7-.1 7.5-1.3 10.7-3.2.2-.1 0-.4-.1-.3zm-4.9-.8c-3.6 1.3-7.2 2.8-10.7 4.4-.1.1 0 .3.1.2 3.6-1.2 7.3-2.7 10.6-4.4.1-.1.1-.3 0-.2zm-6.4-.4c-2.9.7-5.6 2.4-7.2 4.9-.1.1.1.2.2.1 1.9-2.2 4.2-4 7.1-4.9.1 0 0-.2-.1-.1zm-6.9.9c-1.1 1.9-1.7 4.1-1.6 6.2 0 .2.2.2.2 0 .2-2.2.7-4.1 1.6-6.1.1-.1-.1-.2-.2-.1zm21.7.6c-.1-.2-.3-.1-.3.1.3 1.8 1.7 3.6 3.6 3.8.1 0 .2-.2.1-.2-1.7-.8-3-1.8-3.4-3.7zm7.9 2.9c-2.3-.7-4.4-1.6-5.5-3.9-.1-.1-.3 0-.2.1.9 2.4 3.2 3.8 5.7 4 .1 0 .1-.2 0-.2zm5-.1c-2.5-.6-4.9-1.1-6.6-3.2-.1-.1-.3 0-.2.2 1.6 2.1 4.2 3.1 6.8 3.3.1 0 .2-.3 0-.3zm-1.3-3.8c-.1-.1-.3.1-.2.2 1.5 1.7 3.6 3.2 5.8 3.7.2 0 .3-.2.1-.3-2.1-1-3.9-1.9-5.7-3.6zm3 .4c-.1-.1-.3.1-.2.2 1 .9 2.1 1.8 3.4 2.2.1.1.2-.2.1-.2-1.1-.8-2.2-1.4-3.3-2.2zm3.6-.2c-.1-.1-.2.1-.1.2 2.1 1.4 3 3.5 3.3 5.9 0 .2.2.2.2 0 .3-2.5-1.3-4.8-3.4-6.1z" fill="#1b141c" stroke-width="none" opacity="1"></path></g></g><g id="svga-group-nose-single-move" transform="matrix(1,0,0,1,0,0)"><g id="svga-group-nose-single"><path id="SvgjsPath6710" d="M105.06 106.65c.56.92 2.64 3.61 3.09 4.9.45 1.29-.13 3.22-1.48 3.61s-3.61-.39-3.93-.19c-.32.19-1.87 2.06-2.58 1.93-.71-.13-2.64-2.13-3.03-2.13-.39 0-2.13.45-2.97.45-.84 0-2.9-.71-2.64-2.51.26-1.81 2.45-5.54 2.9-6.06.45-.52 1.48-2.32 1.74-3.42s.58-7.03.71-8.38c.13-1.35 1.35-2.97 2.58-3.09 1.23-.13 3.35.77 3.55 2.9.19 2.13.58 6.38.77 8.12.19 1.74.58 2.71 1.29 3.87z" fill="#f0c7b1" stroke-width="none" opacity="1" transform="translate(0 1)" stroke="none"></path><path id="SvgjsPath6711" d="M97.62 85.76c-.84 3.5-.96 7.24-1.34 10.81-.4 3.83-1.14 7.78-1.09 11.63 0 .31.48.39.55.07.78-3.52.88-7.26 1.24-10.84.39-3.82 1.1-7.79.98-11.63 0-.18-.29-.24-.34-.04z" fill="#c27b55" stroke-width="none" opacity="1" transform="translate(0 1)" stroke="none"></path><path id="SvgjsPath6712" d="M94.46 106.19c-1.03 1.37-1.9 2.87-2.65 4.41-.49 1-1.09 2.17-.77 3.32.53 1.89 2.93 2.49 4.5 1.58.47-.27.26-.99-.27-1-.92-.01-1.98.28-2.72-.5-.88-.94-.01-2.63.38-3.57.58-1.39 1.28-2.72 1.83-4.12.07-.19-.2-.26-.3-.12z" fill="#c27b55" stroke-width="none" opacity="1" transform="translate(0 1)" stroke="none"></path><path id="SvgjsPath6713" d="M94.31 113.98c2.84-.21 3.38 3.37 6.07 3.45 2.31.07 2.5-3.41 4.69-3.3.26.01.34-.35.13-.47-2.49-1.47-2.95 2.86-5.24 2.59-1.36-.16-2.32-2.16-3.54-2.73-.83-.39-1.43-.36-2.23.02-.22.09-.11.46.12.44z" fill="#c27b55" stroke-width="none" opacity="1" transform="translate(0 1)" stroke="none"></path><path id="SvgjsPath6714" d="M104.29 115.6c1.87.42 4.05-.16 4.49-2.24.22-1.04-.13-2.07-.67-2.95-.89-1.44-2.03-2.66-2.87-4.15-.14-.25-.49-.12-.51.14-.11 1.67 1.13 2.83 2.02 4.12.82 1.19 1.53 2.83.15 4-.63.54-1.83.44-2.6.59-.26.04-.25.43-.01.49z" fill="#c27b55" stroke-width="none" opacity="1" transform="translate(0 1)" stroke="none"></path><path id="SvgjsPath6715" d="M102.45 109.98c-.41-.74-1.47-.85-2.06-.26-.05.05-.24.29-.3.36-.07.09-.2.26-.23.29-.07.1-.12.21-.18.32l-.12.28c0-.01-.01.01-.03.05-.06.06-.12.13-.18.2-.18.19-.36.38-.5.6-.42.67-.08 1.42.48 1.84.87.65 2.13.13 2.74-.61.76-.89.96-2.03.38-3.07z" fill="#f8d5c3" stroke-width="none" opacity="1" transform="translate(0 1)" stroke="none"></path></g></g><g id="svga-group-hair-front"><path id="SvgjsPath10606" d="M61.3 97.9s.9-21.3 1.5-25.4c.5-4.2 2.5-15.6 6.4-18.7s7.1-6 16.9-4 11.4 4 18.5 2.4 11.3-3.1 11.3-3.1 5.6 1.1 9.3 2c3.6.9 6.5 4.5 9.1 10.9 2.5 6.4 5.6 18.9 4.9 27.8-.7 8.9.9 7.6.9 7.6l3.3-7.3s3.1-5.8 1.6-10.5c0 0 .7-4.2.6-6.4s-1.8-5.3-1.8-5.3.7-6.9 0-9.3-1.3-3.3-1.3-3.3.6-4.2-1.3-7.3-5.4-6-5.4-6-4.7-12-8.9-14-6-5.1-11.3-6c-5.3-.9-11.6.5-11.6.5s-2.5-2-8.2-.2c0 0-4-1.6-10.4.9s-8.7 6.4-8.7 6.4-6.4 2.2-8.2 5.3c0 0-8.2 4-10.4 10.9s-.9 10.7-.9 10.7-2.5 5.8-.7 11.5c0 0-3.1 3.3-.9 11.3 0 0-1.8 3.8.5 9.4 2.3 5.7 2.1 9 5.2 9.2z" fill="#2a232b" stroke-width="none" opacity="1" stroke="none"></path><path id="SvgjsPath10607" d="M144.4 67.3c.7-4.2.2-8.7-1.3-12.2 0-.1-.1-.2-.2-.2.1-1.3.1-2.6-.2-4-.8-4.1-3.6-6.7-6.7-9.3-.1 0-.1-.1-.1-.1-1.3-4.4-3.6-8.6-6.6-11.9-6.3-7.1-17.5-11.7-26.2-6-.2.2-.1.6.2.5 9.9-4 19.9-.2 26.2 8.2 5.2 6.9 6.2 14.6 5.6 23-.1.6.9.7 1.1.2 1.1-3.9 1.1-8.1.1-12.1 1.5 1.7 3.3 3.2 4.3 5.2 2.7 5.4.1 11.5-3.1 16-.4.5.5 1 .8.5 1.9-2.6 3.5-5.5 4.2-8.6.6 3.4 1 6.6.4 10.1-.6 3.4-2.2 6.3-3.6 9.5-.2.4.3.9.7.5 1.8-1.9 3-4.4 3.8-7.2.4 2 .7 3.9.4 6-.2 2.2-1.2 4.1-1.5 6.2 0 .3.4.5.6.3.4-.4.8-.9 1.1-1.5 0 3.4-.7 6.4-1.9 9.6-.5 1.3-1.7 4.8-3 6.6.7-10.4-.3-22-3.5-31.8-1.7-5.2-4.7-10.9-9.5-13.5.6 0 1.3-.1 1.9-.2.5-.1.5-.9 0-1-5.9-1.1-11.6-1.8-16.8-5.2-6.8-4.5-11.4-12.8-9.3-21 .1-.5-.6-.7-.8-.2-3.9 9.8 3.3 20 12.6 24.8-2.1.7-4.3 1.3-6.4 1.8-8.5 0-17.6-2.6-20.1-11.9-2.8-10.2 6.4-18 16.1-15.9.4.1.6-.5.2-.6-3-1.2-5.9-1.2-8.6-.3-6.4-.8-13.1 1-17.6 5.7h-.2c-3.6 2.1-7.2 4.2-9.8 7.2-7.6 3.3-14.3 13.7-11.7 21.8-1.1 3.3-1.4 7.2-.8 10.9-1.5 3-2.1 8.1-.8 11.8-1.4 4.4.5 9.3 2.2 13.4 1.2 2.8 1 5.2 4 6.4.2.1.4.1.5-.1.4-.1.7-.3.8-.8.1-11.4.8-22.8 3.6-33.8 1.2-4.8 2.8-10.3 7.4-12.8 5.2-2.9 12-1.2 17.4.2h.1c8 3.5 18.2 2.3 25.6-2.1 2.5 1 5.1 1.7 7.6 1.9 7.9 2.9 10.9 12.9 12.2 20.6 1.6 8.8 2.4 17.4 1.8 26.3-.1.8.9.9 1.3.5 2.6-1.3 2.5-3.6 3.6-6.3 1.8-4.1 3.5-9.1 2.2-13.4 1.8-3.6 1.2-8.7-.3-11.7zM66.2 57c-5.3 12.1-5.6 27-5.7 40-1.4-1.6-2.7-5.5-3.3-7-1.2-3.2-2-6.2-1.9-9.6.3.6.7 1.1 1.1 1.5.2.2.7.1.6-.3-.3-2.1-1.3-4.1-1.5-6.2-.2-2.1 0-4 .5-6 .7 2.7 2 5.3 3.8 7.2.4.4.9-.1.7-.5-1.4-3.2-3-6-3.6-9.5-.5-2.9-.3-5.7.1-8.6.7 1.3 1.7 2.6 3 3.7.4.3 1.1-.1.8-.6-6.4-9-2.3-19 5.9-24.7-.6 1-1.1 2.2-1.4 3.4-1.1 4.2.7 9.5 5 11.1.4.2.7-.4.4-.7-4.3-4.4-5.8-9.6-1.6-15 .2-.2.3-.4.5-.5.1 0 .1-.1.2-.1.1-.1.2-.2.2-.3 1.7-1.7 3.9-2.8 5.9-4.2-3.5 5.8-2.8 13.4 2.9 17.4.3.2.7-.3.4-.5-5-5-5.6-12.1-1.2-17.7 1.5-1.9 3.3-3.3 5.2-4.3-5.4 5.2-4.8 15.3-.2 20.9 1.1 1.4 2.3 2.5 3.7 3.5-8-2.2-16.7-1-20.5 7.6zm21-9.5c-8.1-6.1-8.7-18.1-.3-24 2.2-.6 4.5-1 6.8-1.1-5.1 2.5-8.7 8.2-8.1 14.3.9 8.2 7.6 13.5 15.1 14.9-4.6.2-9.2-.8-13.5-4.1z" fill="#1b141c" stroke-width="none" opacity="1" stroke="none"></path><path id="SvgjsPath10608" d="M127.9 46.8c-5.5 0-10.3-2.4-13.9-6.4-3.4-3.7-8.8-10.4-6.5-15.8.2-.4-.3-.7-.5-.3-2.8 5.2 1.5 11 4.7 15 4 5 9.6 8.8 16.2 8.1.4 0 .4-.6 0-.6zM105 44.4c-4.9-4.8-10.2-10.6-7-18.1.2-.4-.3-.7-.5-.3-3.8 7.3 1.3 14.6 7.2 18.8.2.2.5-.2.3-.4zm-.4 2.1c-6.3-4.2-12.4-9.2-12.3-17.4 0-.3-.5-.3-.5 0-.4 8.2 5.5 14.6 12.6 17.8.2 0 .4-.2.2-.4zm2 .8C100.8 47 95.8 45 92 40.5c-.2-.2-.6.1-.4.4 3.6 4.4 9.2 7.3 14.9 7 .4-.1.4-.5.1-.6zm-17.4-2.1C84 40 81.4 32.7 87 26.6c.3-.4-.2-.9-.5-.5-6.2 5.6-4.3 15.4 2.2 20 .4.2.9-.5.5-.9zM80.6 44c-3-4-3.9-8.9-1.8-13.5.2-.3-.3-.6-.5-.3-2.4 4.6-1.9 10.4 1.9 14.1.2.2.5 0 .4-.3zm-8.7-8.3c.1-.3-.3-.4-.4-.1-.7 2.6-.8 5.6.4 8 .1.3.6.1.5-.2-.7-2.6-1.1-5-.5-7.7zm0 10.2c-.8-1-1.6-1.9-2.1-3.1-.1-.2-.4 0-.3.1.5 1.2 1.2 2.4 2.3 3.2 0 .1.2-.1.1-.2zM63.8 53c-2.1-3.9-2.4-7.4-1.2-11.6.1-.4-.5-.6-.6-.2-1.3 3.8-1.9 9.1 1.3 12.2.2.4.7 0 .5-.4zm-2 3.6c-1.5-2.5-2.4-4.8-2.2-7.7 0-.2-.3-.2-.4 0-.3 2.8.2 5.9 2.2 8 .3.2.6 0 .4-.3zm-2.2 15.1c-1.2-3.3-2-6.4-1.7-10.1 0-.2-.3-.3-.4 0-.5 3.5-.3 7.3 1.5 10.4.2.2.7 0 .6-.3zM56 74.4c-.1-.2-.3 0-.3.1.4 1.1.7 2.2 1.3 3.2.1.2.4.1.3-.1-.2-1.1-.8-2.2-1.3-3.2zM139.8 52c-.2-1.5-.3-4.5-2.2-4.6-.3 0-.4.4-.1.5 1.6.8 1.5 5.2 1.5 6.6-.1 2.1-.6 4-1.3 5.9-.1.3.4.5.6.2 1.3-2.6 1.8-5.6 1.5-8.6zm2.3 9.7c-.1-.4-.6-.2-.6.2.6 3.1-.3 5.8-1.9 8.4-.2.3.2.6.5.4 2.2-2.4 2.8-6 2-9zm1.2 11.7c0-.3-.5-.3-.5 0 .2 1.8-.1 3.5-.5 5.2 0 .2.2.3.3.1.8-1.6.9-3.5.7-5.3zm-22.7-46.8c-.3-.1-.4.3-.1.4 7.2 3 11.4 13.5 13.6 20.3.1.3.5.2.4-.1-1.7-7.2-6.5-17.8-13.9-20.6z" fill="#3a353a" stroke-width="none" opacity="1" stroke="none"></path></g><g id="svga-group-glasses-single-move" transform="matrix(1,0,0,1,0,0)"><g id="svga-group-glasses-single"></g></g></g></g></g><rect id="svga-credit-rect" width="200" height="15" x="0" y="185" fill="#ecf0f1" opacity="0.5" style="display: none;"></rect><text id="svga-credit-text" font-family="Avenir Next, Roboto, Helvetica, Arial, sans-serif" font-size="10px" text-anchor="start" font-weight="400" size="10px" anchor="start" weight="400" fill="#333333" x="33.402061462402344" y="182.71133995056152" style="display: none;"><tspan id="SvgjsTspan5432" dy="13" x="33.402061462402344">Created on AvatarMaker.com</tspan></text></g><defs id="SvgjsDefs5379"></defs></svg>